<svg width="465" height="395" viewBox="0 0 465 395" fill="none" xmlns="http://www.w3.org/2000/svg">
<path d="M187.083 297.5C187.083 285.534 196.784 275.833 208.75 275.833H241.25C253.216 275.833 262.917 285.534 262.917 297.5C262.917 303.971 260.079 309.78 255.581 313.75C260.079 317.72 262.917 323.529 262.917 330C262.917 341.966 253.216 351.667 241.25 351.667C237.303 351.667 233.603 350.612 230.417 348.768V362.5C230.417 374.466 220.716 384.167 208.75 384.167C196.784 384.167 187.083 374.466 187.083 362.5C187.083 356.029 189.92 350.22 194.418 346.25C189.92 342.28 187.083 336.471 187.083 330C187.083 323.529 189.92 317.72 194.418 313.75C189.92 309.78 187.083 303.971 187.083 297.5ZM219.583 319.167H208.75C202.767 319.167 197.917 324.017 197.917 330C197.917 335.983 202.767 340.833 208.75 340.833H219.583V319.167ZM230.417 330C230.417 335.983 235.267 340.833 241.25 340.833C247.233 340.833 252.083 335.983 252.083 330C252.083 324.017 247.233 319.167 241.25 319.167C235.267 319.167 230.417 324.017 230.417 330ZM241.25 308.333C247.233 308.333 252.083 303.483 252.083 297.5C252.083 291.517 247.233 286.667 241.25 286.667H230.417V308.333H241.25ZM208.75 286.667C202.767 286.667 197.917 291.517 197.917 297.5C197.917 303.483 202.767 308.333 208.75 308.333H219.583V286.667H208.75ZM219.583 351.667H208.75C202.767 351.667 197.917 356.517 197.917 362.5C197.917 368.483 202.767 373.333 208.75 373.333C214.733 373.333 219.583 368.483 219.583 362.5V351.667Z" fill="#E5E9FC"/>
<path d="M19.6134 324.178C18.6135 323.509 17.7529 322.658 16.7463 321.456C16.3824 321.022 14.9094 319.175 15.1937 319.528C13.6511 317.611 12.6765 316.723 11.6719 316.363C9.939 315.742 9.038 313.833 9.65947 312.1C10.2809 310.367 12.1895 309.466 13.9224 310.088C16.4312 310.988 18.1282 312.537 20.4142 315.381C20.1008 314.991 21.5455 316.803 21.8577 317.176C22.4928 317.935 22.9577 318.394 23.321 318.637C24.0039 319.094 25.2817 319.291 27.157 319.104C27.2355 317.83 27.4712 316.594 27.8306 315.453C17.9366 313.035 12.3372 306.651 12.3372 294.132C12.3372 290.003 13.568 286.28 15.8639 283.159C15.1383 280.18 15.2478 276.576 16.8697 272.521C17.2417 271.591 18.012 270.878 18.9677 270.578C19.2414 270.499 19.393 270.464 19.6626 270.422C22.3389 270.011 26.1191 270.99 31.0483 274.078C33.9367 273.396 36.9617 273.05 40.004 273.05C43.043 273.05 46.0653 273.395 48.9513 274.076C53.873 270.967 57.662 269.988 60.3573 270.422C60.6397 270.467 60.8817 270.526 61.083 270.592C62.0197 270.9 62.772 271.606 63.138 272.521C64.7597 276.575 64.8693 280.178 64.1443 283.157C66.4473 286.278 67.6707 289.974 67.6707 294.132C67.6707 306.656 62.09 313.016 52.196 315.44C52.6123 316.823 52.832 318.368 52.832 320.04C52.832 322.255 52.8237 324.37 52.808 326.742C52.804 327.376 52.799 328.053 52.7917 329.094C54.043 329.37 55.0763 330.359 55.3437 331.696C55.7047 333.501 54.534 335.258 52.7287 335.619C48.9313 336.378 46.1177 333.846 46.1177 330.537C46.1177 330.236 46.12 329.806 46.125 329.048C46.1327 328.005 46.1373 327.33 46.1417 326.698C46.157 324.34 46.1653 322.239 46.1653 320.04C46.1653 317.716 45.5547 316.201 44.7457 315.503C42.5423 313.604 43.659 309.991 46.55 309.666C56.438 308.555 61.004 304.726 61.004 294.132C61.004 290.95 59.9643 288.319 57.9603 286.119C57.1003 285.174 56.8557 283.822 57.33 282.636C57.8823 281.255 58.118 279.446 57.647 277.257L57.6157 277.266C55.976 277.73 53.9147 278.733 51.4203 280.428C50.6067 280.981 49.5907 281.147 48.644 280.88C45.9097 280.111 42.971 279.717 40.004 279.717C37.0367 279.717 34.098 280.111 31.3639 280.88C30.4221 281.145 29.4115 280.983 28.5999 280.437C26.0913 278.748 24.0187 277.746 22.3693 277.279C21.8912 279.457 22.1271 281.259 22.6779 282.636C23.1522 283.822 22.9073 285.174 22.0474 286.119C20.0572 288.304 19.0039 290.979 19.0039 294.132C19.0039 304.705 23.5742 308.561 33.41 309.666C36.2943 309.99 37.4153 313.59 35.225 315.494C34.5837 316.052 33.7947 317.934 33.7947 320.04V330.537C33.7947 333.825 31.0119 336.29 27.2626 335.633C25.4492 335.316 24.2364 333.589 24.5538 331.775C24.7942 330.401 25.8444 329.372 27.128 329.092V325.794C24.0943 325.998 21.5885 325.499 19.6134 324.178Z" fill="#E5E9FC"/>
<path d="M368.786 20.3423L277.119 112.009L305.383 140.273L425.284 20.3423H368.786ZM368.736 104.657L319.463 154.349L368.71 203.665H425.439L376.06 154.166L425.451 104.665L368.736 104.657Z" fill="#E5E9FC"/>
<path d="M48.7627 218.025C51.5377 219.125 53.5 221.833 53.5 225C53.5 229.142 50.1421 232.5 46 232.5C41.8579 232.5 38.5 229.142 38.5 225C38.5 221.734 40.587 218.956 43.5 217.927V202.073C40.587 201.044 38.5 198.266 38.5 195C38.5 190.858 41.8579 187.5 46 187.5C50.1421 187.5 53.5 190.858 53.5 195C53.5 198.266 51.413 201.044 48.5 202.073V209.999C50.5891 208.43 53.186 207.5 56 207.5H66C69.4587 207.5 72.3705 205.159 73.2372 201.975C70.4622 200.875 68.5 198.167 68.5 195C68.5 190.858 71.8577 187.5 76 187.5C80.1423 187.5 83.5 190.858 83.5 195C83.5 198.333 81.3258 201.158 78.3185 202.135C77.3055 208.021 72.1757 212.5 66 212.5H56C52.5413 212.5 49.6295 214.841 48.7627 218.025ZM46 222.5C44.6193 222.5 43.5 223.619 43.5 225C43.5 226.381 44.6193 227.5 46 227.5C47.3807 227.5 48.5 226.381 48.5 225C48.5 223.619 47.3807 222.5 46 222.5ZM46 192.5C44.6193 192.5 43.5 193.619 43.5 195C43.5 196.381 44.6193 197.5 46 197.5C47.3807 197.5 48.5 196.381 48.5 195C48.5 193.619 47.3807 192.5 46 192.5ZM76 192.5C74.6193 192.5 73.5 193.619 73.5 195C73.5 196.381 74.6193 197.5 76 197.5C77.3807 197.5 78.5 196.381 78.5 195C78.5 193.619 77.3807 192.5 76 192.5Z" fill="#E5E9FC"/>
<path d="M126.164 204.242C125.906 204.328 124.523 204.773 123.07 205.25C115.258 207.805 109.727 210.766 108.352 213.109C107.828 214.008 107.727 214.734 108.039 215.461C108.383 216.281 109.016 216.898 110.75 218.125C111.563 218.695 112.945 219.891 113.844 220.789C118.141 225.078 120.227 230.336 119.992 236.281C119.727 242.969 116.594 249.656 110.594 256.352C108.5 258.687 106.352 260.633 102.227 263.937C98.7891 266.687 96.9219 268.469 95.6484 270.195C91.75 275.508 92.7891 280.242 98.7422 284.195C103.992 287.687 113.242 290.594 124.141 292.172C127.797 292.703 131.93 293.039 132.922 292.891L133.617 292.789L134.711 290.82C140.242 280.859 143.039 271.469 143.375 261.75C143.523 257.414 142.977 252.281 142.047 249.281C141.875 248.742 141.75 248.281 141.773 248.266C141.789 248.25 143.336 247.789 145.211 247.227C155.062 244.289 164.594 241.977 172.469 240.609C174 240.344 175.313 240.07 175.383 240C175.805 239.586 174.578 237.672 172.586 235.617C165.219 228.016 152.203 222.227 136.93 219.766C133.984 219.289 133.625 219.117 132.531 217.672C130.797 215.375 129.164 211.445 126.938 204.258C126.867 204.039 126.797 204.039 126.164 204.242ZM127.18 206.945C128.039 209.281 128.563 211.117 128.563 211.766V212.273L127.836 212.187C123.898 211.734 117.617 210.758 116.281 210.398C115.937 210.305 115.742 210.172 115.805 210.07C115.906 209.906 117.242 209.266 121.211 207.461C124.914 205.781 126.32 205.156 126.43 205.148C126.477 205.148 126.813 205.953 127.18 206.945ZM118.852 211.875C123.656 212.883 127.156 213.516 127.93 213.516C128.68 213.516 128.594 213.578 125.063 215.734C122.336 217.391 122.023 217.547 121.336 217.547H120.586L118.57 215.5C116.125 213.023 114.469 211.211 114.469 211.008C114.469 210.922 114.516 210.898 114.586 210.937C114.648 210.969 116.578 211.398 118.852 211.875ZM115.305 214.148C116.484 215.523 117.398 216.68 117.352 216.734C117.25 216.836 113.883 216 111.82 215.367C110.023 214.812 109.805 214.625 110.281 214.016C110.594 213.609 112.914 211.672 113.086 211.664C113.133 211.656 114.125 212.766 115.305 214.148ZM130.633 217C131.102 218.117 131.461 219.023 131.445 219.039C131.422 219.055 125.109 218.078 124.555 217.969C124.437 217.945 125.508 217.219 126.945 216.344C128.383 215.469 129.609 214.805 129.672 214.875C129.734 214.93 130.164 215.883 130.633 217ZM116.867 219.117C116.992 219.242 118.5 224.086 118.43 224.148C118.406 224.172 117.688 223.344 116.836 222.289C115.977 221.234 114.688 219.758 113.945 218.984L112.609 217.586L114.695 218.305C115.836 218.703 116.82 219.07 116.867 219.117ZM122.898 219.766C125.516 220.141 127.688 220.477 127.727 220.516C127.758 220.555 126.18 221.781 124.211 223.25C122.242 224.711 120.617 225.891 120.594 225.867C120.57 225.844 120.375 225.234 120.156 224.508C119.938 223.781 119.375 222.273 118.914 221.141C118.453 220.008 118.094 219.086 118.109 219.086C118.125 219.086 120.281 219.398 122.898 219.766ZM129.477 221.859C130.055 223.211 130.281 224.508 130.375 227.094C130.422 228.484 130.43 229.617 130.383 229.617C130.336 229.617 129.508 229.328 128.547 228.984C126.625 228.289 122.859 227.047 122.414 226.961C122.219 226.922 123.125 226.055 125.508 224C127.367 222.398 128.945 221.094 129.016 221.094C129.094 221.102 129.297 221.445 129.477 221.859ZM136.227 222.187C139.125 222.781 141.656 223.312 141.859 223.359C142.148 223.43 141.453 223.867 138.391 225.547C136.281 226.703 133.891 228.016 133.078 228.477C132.258 228.937 131.586 229.289 131.57 229.273C131.555 229.258 131.641 228.828 131.758 228.312C132.195 226.437 131.922 224.094 131.047 222.227C130.789 221.687 130.578 221.211 130.578 221.172C130.578 221.039 131.102 221.133 136.227 222.187ZM144.125 225.727C143.977 226.383 143.656 227.5 143.398 228.227C142.844 229.82 140.82 233.953 140.547 234.062C140.438 234.109 139.484 233.664 138.445 233.086C137.406 232.508 135.898 231.742 135.109 231.391L133.672 230.75L138.977 227.352C143.375 224.531 144.289 224 144.336 224.25C144.367 224.406 144.273 225.07 144.125 225.727ZM148 224.516C153.5 226.094 159.305 228.227 158.969 228.547C158.898 228.609 158.18 228.852 157.375 229.078C153.227 230.258 147.453 232.25 144.75 233.437C143.914 233.805 143.188 234.078 143.148 234.039C143.109 234 143.437 232.781 143.883 231.344C144.75 228.508 145.758 224.68 145.758 224.187C145.758 223.969 145.836 223.898 146.031 223.953C146.172 223.992 147.055 224.242 148 224.516ZM124.352 230.219C125.609 230.633 127.07 231.187 127.609 231.461C128.586 231.953 128.594 231.961 128.313 232.266C127.813 232.82 122.352 237.906 122.195 237.961C122.117 237.992 122.055 237.219 122.055 236.102C122.047 234.164 121.828 230.672 121.664 229.891C121.539 229.32 121.641 229.328 124.352 230.219ZM159.273 231.227C158.07 233.211 156.094 236.039 154.664 237.82C153.203 239.648 150.117 243.086 149.938 243.086C149.867 243.086 149.422 242.531 148.945 241.844C147.188 239.336 145.148 237.164 143.359 235.898C143.188 235.781 143.086 235.648 143.125 235.609C143.164 235.57 146.102 234.492 149.633 233.211C156.789 230.617 159.938 229.562 160.133 229.703C160.148 229.727 159.766 230.406 159.273 231.227ZM163.75 230.891C168.688 234.336 172.047 237.125 173.266 238.789C173.57 239.211 173.797 239.57 173.766 239.594C173.734 239.617 172.148 239.797 170.227 239.984C162.563 240.742 157.102 241.508 154.211 242.242C153.438 242.437 152.789 242.586 152.781 242.578C152.766 242.562 153.273 241.937 153.922 241.164C157.266 237.156 160.281 232.984 161.406 230.82C161.703 230.25 161.992 229.781 162.055 229.781C162.109 229.773 162.867 230.273 163.75 230.891ZM136.07 235.164C137.016 235.672 137.742 236.141 137.703 236.219C137.633 236.359 129.297 240.922 129.227 240.859C129.211 240.844 129.641 239.477 130.188 237.805C130.734 236.133 131.266 234.32 131.367 233.766L131.555 232.75L132.961 233.5C133.742 233.914 135.125 234.656 136.07 235.164ZM129.094 235.43C128.289 238.219 126.656 241.812 125.914 242.437C125.742 242.578 125.406 242.383 124.305 241.492C123.531 240.867 122.742 240.25 122.531 240.109C122.328 239.969 122.18 239.82 122.211 239.781C122.781 239.211 129.422 233.859 129.453 233.945C129.477 234 129.313 234.672 129.094 235.43ZM144.187 240.281C145.445 241.117 148.227 243.609 148.078 243.766C148.039 243.805 145.211 244.727 141.805 245.797C138.398 246.875 134.602 248.094 133.367 248.508C132.125 248.922 131.109 249.25 131.102 249.234C131.086 249.219 131.953 248.234 133.023 247.039C135.813 243.93 138.68 240.594 139.695 239.281L140.57 238.148L141.719 238.766C142.336 239.109 143.461 239.797 144.187 240.281ZM137.734 238.492C137.656 238.594 136.906 239.547 136.063 240.617C135.219 241.68 133.203 244.273 131.563 246.375L128.586 250.203L128.484 249.555C128.297 248.297 127.625 245.852 127.242 245.016L126.859 244.18L128.75 243.234C130.703 242.258 134.773 240.047 136.68 238.937C137.883 238.234 137.961 238.203 137.734 238.492ZM121.945 243.117C122.719 243.516 123.445 244.031 123.445 244.195C123.445 244.445 118.406 248.336 118.273 248.187C118.242 248.156 118.695 247.258 119.281 246.187C119.875 245.117 120.469 243.922 120.609 243.516C120.75 243.109 120.969 242.781 121.078 242.781C121.203 242.781 121.594 242.937 121.945 243.117ZM126.242 247.906C126.594 248.586 126.953 250.5 126.766 250.672C126.688 250.742 124.609 251.727 122.133 252.859C119.656 253.992 116.445 255.516 114.969 256.25C113.5 256.984 112.383 257.5 112.492 257.406C112.602 257.305 114.219 255.953 116.094 254.391C119.719 251.375 123.852 247.773 124.609 246.977L125.063 246.5L125.508 246.93C125.758 247.164 126.086 247.602 126.242 247.906ZM122.172 247.867C121.813 248.187 119.875 249.883 117.875 251.617C115.875 253.344 113.469 255.437 112.531 256.258C110.641 257.906 110.641 257.906 113.055 254.758C114.922 252.32 115.898 251.414 118.578 249.617C119.883 248.742 122.477 247.281 122.727 247.281C122.781 247.273 122.531 247.547 122.172 247.867ZM140.945 249.523C141.047 250.031 141.164 251.625 141.219 253.047L141.313 255.641L140.711 255.359C138.633 254.398 132.797 251.109 133.016 251.023C134.289 250.516 140.594 248.422 140.664 248.492C140.719 248.547 140.844 249.008 140.945 249.523ZM135.992 254.164C138.422 255.594 140.43 256.781 140.461 256.805C140.492 256.828 140.172 257.094 139.773 257.391C139 257.961 130.758 262.219 130.648 262.109C130.617 262.078 130.727 261.367 130.891 260.547C131.227 258.891 131.531 253.953 131.383 252.383C131.336 251.828 131.352 251.437 131.43 251.484C131.516 251.531 133.563 252.734 135.992 254.164ZM129.273 253.117C129.461 254.656 129.234 257.75 128.82 259.359C128.328 261.25 128.047 262.039 127.836 262.109C127.547 262.211 125.75 260.57 124.648 259.203C123.539 257.828 122.086 255.234 122.305 255.023C122.438 254.898 128.859 252.25 129.055 252.242C129.117 252.234 129.219 252.633 129.273 253.117ZM121.398 256.984C122.078 258.391 123.633 260.422 125.336 262.141C126.43 263.242 126.703 263.602 126.531 263.711C125.766 264.227 122.352 265.828 120.195 266.672C117.578 267.703 114.18 268.875 114.102 268.781C114.07 268.75 114.852 267.328 115.836 265.625C117.969 261.922 120.664 256.687 120.664 256.258C120.664 255.711 120.891 255.93 121.398 256.984ZM117.367 257.07C117.328 257.18 117 257.992 116.648 258.891C115.133 262.734 112.188 267.953 111.531 267.953C111.023 267.953 110.273 264.914 110.062 261.992L109.953 260.523L113.555 258.703C115.539 257.703 117.219 256.883 117.305 256.883C117.375 256.875 117.406 256.961 117.367 257.07ZM141.414 260.625C141.43 262.836 140.5 268.187 140.008 268.727C139.805 268.953 137.516 268.109 135.461 267.047C133.617 266.094 130.586 264.211 130.586 264.023C130.586 263.969 131.047 263.734 131.625 263.492C132.719 263.031 137.805 260.312 139.961 259.039L141.203 258.305L141.313 258.867C141.352 259.172 141.406 259.977 141.414 260.625ZM107.484 263.18C107.695 264.93 108.234 267.07 108.906 268.773C109.18 269.469 109.375 270.07 109.344 270.102C109.078 270.344 98.2578 273.32 96.8281 273.547L96.1484 273.656L96.25 273.133C96.3984 272.391 97.4453 270.25 98.2266 269.094C99.1953 267.656 101.594 265.25 103.18 264.133C104.359 263.297 107.203 261.641 107.289 261.734C107.297 261.742 107.391 262.391 107.484 263.18ZM132.031 266.867C135.375 268.469 136.641 269.023 138.242 269.578L139.469 270L138.695 270.391C134.313 272.609 126.562 275.773 124.555 276.164C124.109 276.25 124.047 276.227 124.133 276.008C124.477 275.109 129.102 265.555 129.188 265.555C129.242 265.547 130.531 266.148 132.031 266.867ZM126.148 266.508C125.914 267.633 124.641 271.281 123.898 272.937C123.258 274.375 121.773 277.18 121.508 277.445C121.391 277.562 118.75 276.07 117.5 275.18C116.094 274.18 113.016 271.211 113.102 270.937C113.133 270.836 115.008 270.117 117.266 269.336C122.023 267.695 124.687 266.703 125.461 266.305C126.211 265.914 126.273 265.937 126.148 266.508ZM139.453 271.547C139.406 271.875 139.141 273.312 138.852 274.766C137.945 279.32 136.844 282.43 136.141 282.43C135.172 282.43 128.539 280.82 126.398 280.062C124.945 279.547 123.688 278.961 123.273 278.594C123.016 278.367 123.148 278.289 125.055 277.508C131.188 275.008 138.258 271.82 139.023 271.211C139.469 270.859 139.539 270.906 139.453 271.547ZM108.422 272.937C107.727 274.18 106.297 276.234 103.578 279.906L101.258 283.031L100.562 282.531C99.5859 281.836 98.0391 280.148 97.3906 279.078C96.6953 277.93 96.2187 276.516 96.1641 275.437L96.1172 274.602L97.2656 274.484C98.8203 274.328 103.164 273.43 106.266 272.617C107.672 272.25 108.844 271.969 108.875 271.992C108.898 272.023 108.695 272.445 108.422 272.937ZM115.164 276.148C115.937 276.703 117 277.406 117.547 277.727L118.539 278.305L118.094 278.492C117.844 278.594 114.242 279.906 110.078 281.414C102.969 283.984 102.5 284.133 102.305 283.867C102.187 283.711 102.109 283.547 102.125 283.492C102.141 283.437 104.062 280.961 106.398 277.969L110.641 272.539L112.203 273.844C113.078 274.57 114.391 275.594 115.164 276.148ZM116.914 284.312C115.359 286.633 114.047 288.594 114 288.656C113.883 288.812 111.398 288.227 109.539 287.609C107.586 286.953 105.18 285.734 104.242 284.93L103.562 284.344L105.094 283.93C111.367 282.219 119.664 280.023 119.703 280.055C119.734 280.062 118.469 281.992 116.914 284.312ZM124.383 280.797C127.703 281.937 130.734 282.586 134.664 283.008L135.75 283.125L132.82 284.18C125.508 286.82 119.586 288.672 116.602 289.25C115.766 289.414 115 289.547 114.914 289.547C114.828 289.547 115.43 288.727 116.25 287.734C118.484 285.008 120.906 281.906 121.547 280.953C121.859 280.492 122.172 280.102 122.242 280.102C122.313 280.109 123.266 280.414 124.383 280.797ZM135.281 286.953C134.023 290.203 133.102 292.18 132.773 292.305C132.148 292.547 123.516 291.273 120.883 290.562C119.133 290.086 118.016 289.625 118.344 289.508C118.469 289.461 119.719 289.172 121.133 288.852C125.703 287.82 132.672 285.703 135.555 284.469C135.93 284.312 136.258 284.195 136.281 284.219C136.297 284.242 135.852 285.469 135.281 286.953Z" fill="#E5E9FC"/>
<g clip-path="url(#clip0_130_76)">
<path d="M354.812 249.438C353.187 247.813 350.437 246.25 347.75 245.375L362 286.125L357.687 295.938L367.562 292.688V262.25L354.812 249.438ZM346.375 301.813L305.75 287.5C306.625 290.188 308.125 292.938 309.812 294.625L323.125 307.875L352.875 307.938L356.187 297.5L346.375 301.813ZM303.937 283.688L303.875 282V246.063L289.062 268.688C287.75 270.063 288.437 273 290.5 275.188L299.687 284.438L304.25 286.063C304.062 285.25 303.937 284.5 303.937 283.688Z" fill="#E5E9FC"/>
<path d="M342.125 243.625L344 243.688C344.688 243.75 345.375 243.875 346.125 244L344.563 239.375L335.312 230.188C333.187 228.062 330.313 227.438 328.813 228.75L306.25 243.688L342.125 243.625ZM345.938 245.875C345.188 245.75 344.5 245.625 343.875 245.563L342.063 245.5L307.063 245.563L356.188 294.687L360 286.063L345.938 245.875ZM306.063 285.625L346.25 299.813L354.875 296L305.75 246.875V281.938L305.813 283.625C305.813 284.188 305.875 284.875 306.063 285.625Z" fill="#E5E9FC"/>
</g>
<path d="M237.159 19.0252L237.391 19.1579C234.235 20.8262 225.21 26.1961 225.21 33.0403C225.21 35.3483 226.531 37.5763 227.768 39.6646C228.86 41.5065 229.888 43.24 229.888 44.8233C229.888 48.8142 225.999 51.905 223.803 53.3325L223.386 53.0912C224.217 52.0783 225.237 50.3837 225.237 48.5762C225.237 46.0837 223.96 44.0929 222.663 42.0704C221.323 39.9819 219.961 37.8592 219.961 35.1142C219.961 25.5612 232.941 20.4377 237.159 19.0252ZM220.098 24.077C225.316 19.4094 231.019 14.3077 231.019 6.63696C231.019 3.16543 229.599 0.949662 228.894 0.063324L228.669 0.193135C228.841 0.882025 229.088 2.15836 229.088 3.82377C229.088 10.8068 223.164 15.7027 217.429 20.4427C212.048 24.8902 206.833 29.2004 206.833 34.9686C206.833 43.2367 214.993 48.3262 218.436 50.4742C218.528 50.5312 218.616 50.5862 218.701 50.6392L218.911 50.5179C218.723 50.3146 218.524 50.1025 218.316 49.8817C215.667 47.0633 211.643 42.7821 211.643 36.2384C211.643 31.6399 215.698 28.0127 220.098 24.077ZM218.212 65.3571C225.564 65.3571 230.705 64.3033 232.988 63.6567L236.455 65.6596C233.151 67.3362 225.825 68.6162 218.198 68.6162C209.225 68.6162 199.418 66.69 199.386 64.1254C199.368 62.7121 202.577 61.7683 206.032 61.1575L206.24 61.2783C206.24 61.2783 205.07 61.7 205.083 62.6675C205.101 64.1221 210.997 65.3571 218.212 65.3571ZM203.51 74.4042C203.51 72.7062 207.002 71.9046 208.605 71.5854L208.813 71.7058C208.537 71.9108 208.389 72.1912 208.389 72.4279C208.389 73.5421 212.261 74.56 218.205 74.56C223.53 74.56 226.487 73.9029 228.242 73.4846L232.369 75.8725C232.185 76.0046 228.12 78.5583 218.195 78.5583C210.982 78.5583 203.51 76.7567 203.51 74.4042ZM239.045 67.2037C243.964 64.4012 248.885 61.0846 249.163 55.7579C249.345 52.2637 246.135 49.6983 242.622 50.3858L242.808 49.9171L242.811 49.9087C243.693 49.64 244.781 49.4242 246.004 49.4242C249.932 49.4242 252.944 51.7792 253.33 55.0754C254.104 61.6846 244.739 65.9842 239.491 67.4608L239.045 67.2037ZM247.273 79.6529C247.313 84.1946 231.865 86.8971 218.059 87.0171C206.137 87.1217 186.916 84.8687 186.876 80.3312C186.849 77.1925 195.212 75.0187 199.751 74.3937L200.23 74.6671C200.23 74.6671 193.456 76.2358 193.481 79.0904C193.506 81.9375 207.752 84.4012 218.035 84.3117C233.973 84.1725 244.761 81.5733 246.038 78.0546L246.264 77.925C246.73 78.2658 247.266 78.8296 247.273 79.6529ZM198.797 88.9062C204.434 89.8537 211.135 90.3079 216.623 90.2596C242.492 90.0337 249.789 83.6733 250.92 82.2933L251.115 82.4071C250.844 87.4417 237.167 91.625 220.298 91.7725C211.707 91.8471 203.89 90.8529 198.275 89.2067L198.797 88.9062ZM209.636 50.2254C205.142 50.5712 195.489 51.9987 195.489 54.5433C195.489 56.465 204.337 59.1783 218.203 59.1783C230.679 59.1783 238.555 56.8237 240.39 55.9254L237.711 54.3667C235.796 54.8892 228.676 56.4746 218.203 56.4746C212.036 56.4746 201.411 55.3375 201.411 53.6025C201.411 52.0429 208.043 50.84 209.946 50.4946C209.988 50.4871 210.028 50.48 210.065 50.4729L209.636 50.2254Z" fill="#E5E9FC"/>
<path d="M274.797 164.172L275.031 164.016C274.563 163.156 273.859 162.375 273.156 161.984L235.422 140.266C234.797 139.875 233.938 139.719 233 139.719C232.062 139.719 231.203 139.953 230.578 140.266L193.078 162.062C191.75 162.844 190.812 164.797 190.812 166.281V209.797C190.812 210.656 190.969 211.594 191.516 212.453L191.359 212.531C191.75 213.156 192.297 213.703 192.844 214.016L230.5 235.812C231.125 236.203 231.984 236.359 232.922 236.359C233.859 236.359 234.719 236.125 235.344 235.812L272.844 214.016C274.172 213.234 275.109 211.281 275.109 209.797V166.203C275.188 165.578 275.109 164.875 274.797 164.172ZM233 218.859C215.969 218.859 202.141 205.031 202.141 188C202.141 170.969 215.969 157.141 233 157.141C244.484 157.141 254.484 163.469 259.797 172.766L249.641 178.625C246.359 172.766 240.109 168.859 233 168.859C222.453 168.859 213.859 177.453 213.859 188C213.859 198.547 222.453 207.141 233 207.141C240.109 207.141 246.359 203.234 249.641 197.453L259.719 203.391C254.406 212.609 244.406 218.859 233 218.859ZM272.844 186.437H270.344L269.641 189.562H272.844V193.469H268.938L268 198.156H264.172L265.109 193.469H262.141L261.203 198.156H257.453L258.391 193.469H256.438V189.562H259.172L259.875 186.437H256.438V182.531H260.578L261.516 177.844H265.344L264.406 182.531H267.375L268.312 177.844H272.062L271.125 182.531H272.844V186.437ZM262.922 189.562H265.891L266.594 186.437H263.625L262.922 189.562Z" fill="#E5E9FC"/>
<path fill-rule="evenodd" clip-rule="evenodd" d="M163.407 142.991C163.161 141.395 161.82 140.35 160.261 140.28C159.697 140.254 159.124 140.313 158.561 140.385C157.881 140.471 157.21 140.624 156.531 140.726C156.063 140.796 155.587 140.828 155.119 140.876L155.108 140.815C155.982 139.165 156.892 137.532 157.719 135.858C158.353 134.574 158.896 133.244 159.456 131.924C160.384 129.738 161.125 127.484 161.738 125.193C162.326 122.999 162.829 120.782 162.987 118.506C163.051 117.597 163.094 116.684 163.09 115.774C163.085 115.049 163.007 114.322 162.934 113.598C162.852 112.769 162.602 111.983 162.255 111.227C161.798 110.231 161.089 109.413 160.343 108.637C159.746 108.015 159.089 107.448 158.438 106.882C157.509 106.074 156.465 105.43 155.381 104.857C154.152 104.204 152.851 103.699 151.503 103.353C150.687 103.145 149.852 102.99 149.025 102.825C148.727 102.765 148.429 102.641 148.132 102.641H142.531C142.329 102.641 142.128 102.745 141.924 102.768C140.583 102.917 139.258 103.17 137.972 103.569C137.49 103.718 137.051 103.624 136.593 103.582C136.243 103.55 135.898 103.455 135.548 103.438C134.212 103.371 132.875 103.273 131.54 103.288C130.261 103.301 128.995 103.511 127.757 103.863C126.721 104.157 125.707 104.516 124.778 105.061C124.381 105.294 124.066 105.25 123.654 105.132C122.272 104.733 120.881 104.358 119.477 104.044C118.602 103.848 117.702 103.751 116.809 103.657C115.951 103.568 115.09 103.515 114.228 103.496C113.387 103.478 112.54 103.479 111.703 103.553C110.369 103.669 109.055 103.947 107.788 104.381C106.386 104.86 105.075 105.575 103.913 106.494C102.728 107.432 101.778 108.577 101.013 109.885C100.208 111.265 99.6553 112.742 99.3119 114.293C99.1259 115.134 99.0084 115.998 98.8809 116.852C98.841 117.118 99.2812 117.383 98.7344 117.648V121.363C99.2812 121.611 98.8481 121.857 98.8798 122.105C98.9559 122.701 99.0231 123.301 99.1237 123.892C99.2829 124.828 99.4716 125.761 99.6641 126.691C99.9314 127.99 100.213 129.286 100.51 130.579C100.726 131.52 100.973 132.455 101.231 133.385C101.625 134.806 102.013 136.23 102.459 137.635C102.873 138.94 103.347 140.227 103.818 141.514C104.469 143.294 105.249 145.016 106.184 146.667C106.993 148.097 107.917 149.436 109.157 150.537C109.974 151.263 110.883 151.821 111.942 152.099C112.774 152.318 113.619 152.344 114.471 152.17C115.441 151.973 116.347 151.539 117.109 150.906C117.198 150.833 117.296 150.777 117.401 150.912C117.803 151.421 118.341 151.76 118.904 152.054C120.423 152.846 122.078 153.083 123.759 153.18C124.166 153.204 124.577 153.145 124.987 153.134C125.786 153.112 126.563 152.956 127.327 152.735C127.727 152.619 128.118 152.472 128.525 152.335C128.547 152.768 128.574 153.186 128.587 153.604L128.644 155.882C128.654 156.229 128.668 156.577 128.7 156.922C128.782 157.812 128.863 158.702 128.969 159.589C129.043 160.2 129.12 160.817 129.264 161.413C129.552 162.618 129.947 163.794 130.444 164.929C130.92 166.03 131.651 167.002 132.577 167.764C133.791 168.768 135.214 169.196 136.75 169.276C137.386 169.309 138.039 169.278 138.665 169.164C139.659 168.987 140.643 168.755 141.611 168.467C143.575 167.874 145.272 166.85 146.541 165.196C147.262 164.253 147.855 163.233 148.236 162.107C148.55 161.177 148.846 160.238 149.081 159.285C149.267 158.535 149.359 157.761 149.472 156.995C149.547 156.488 149.592 155.976 149.639 155.465C149.715 154.636 149.793 153.807 149.849 152.976C149.887 152.397 149.885 151.816 149.908 151.236C149.915 151.059 149.944 150.884 149.96 150.708C149.975 150.545 150.058 150.488 150.224 150.491C150.809 150.5 151.396 150.515 151.98 150.489C152.635 150.459 153.296 150.431 153.94 150.323C154.858 150.17 155.768 149.975 156.669 149.74C157.731 149.462 158.706 148.964 159.644 148.397C160.736 147.737 161.732 146.963 162.54 145.965C163.243 145.095 163.576 144.089 163.407 142.991ZM161.541 143.528C161.505 144.029 161.276 144.457 160.943 144.824C159.374 146.554 157.406 147.603 155.154 148.12C154.299 148.316 153.416 148.417 152.541 148.498C151.793 148.564 151.041 148.582 150.291 148.551C149.741 148.531 149.195 148.405 148.633 148.324C148.577 148.838 148.523 149.373 148.458 149.908L148.196 151.956C148.117 152.605 148.055 153.256 147.973 153.905C147.894 154.534 147.794 155.161 147.71 155.791C147.632 156.377 147.575 156.966 147.488 157.551C147.354 158.448 147.226 159.347 147.051 160.237C146.841 161.301 146.519 162.331 145.993 163.29C145.352 164.461 144.443 165.353 143.287 166.014C142.094 166.695 140.791 167.049 139.47 167.346C138.535 167.556 137.571 167.59 136.624 167.505C134.981 167.356 133.579 166.653 132.519 165.38C131.507 164.164 130.823 162.771 130.578 161.193C130.463 160.443 130.374 159.688 130.309 158.932C130.237 158.091 130.182 157.248 130.146 156.405C130.097 155.335 130.061 154.265 130.038 153.194C130.009 151.879 130 150.563 129.981 149.247L129.978 149.197C129.309 149.598 128.651 150.038 127.953 150.4C127.137 150.822 126.245 151.073 125.329 151.14C124.608 151.194 123.878 151.244 123.161 151.187C121.984 151.092 120.809 150.908 119.756 150.329C119.329 150.094 118.883 149.807 118.589 149.432C117.883 148.532 118.221 147.394 119.285 146.847C120.02 146.468 120.822 146.31 121.619 146.125C122.312 145.968 122.999 145.78 123.676 145.563C124.344 145.344 124.766 144.802 125.182 144.27L125.841 143.422C125.566 143.393 125.307 143.364 125.048 143.34C124.261 143.265 123.51 143.049 122.792 142.73C122.177 142.459 122.168 142.429 121.717 142.918C120.965 143.735 120.233 144.571 119.496 145.402C118.953 146.013 118.414 146.627 117.874 147.24C117.34 147.846 116.839 148.486 116.263 149.05C115.407 149.887 114.377 150.391 113.147 150.334C112.358 150.298 111.635 150.021 110.985 149.569C109.645 148.635 108.741 147.329 107.919 145.956C106.865 144.198 106.056 142.325 105.364 140.401C104.885 139.071 104.403 137.74 103.985 136.39C103.53 134.924 103.132 133.44 102.74 131.955C102.447 130.834 102.177 129.707 101.929 128.575C101.641 127.289 101.374 125.998 101.129 124.703C100.966 123.829 100.871 122.942 100.739 122.061C100.561 120.875 100.529 119.677 100.593 118.485C100.651 117.412 100.805 116.341 100.958 115.275C101.17 113.799 101.656 112.407 102.356 111.092C102.784 110.286 103.316 109.554 103.93 108.874C104.939 107.757 106.16 106.95 107.519 106.344C108.468 105.921 109.471 105.666 110.493 105.467C112.01 105.172 113.541 105.183 115.072 105.215C115.742 105.228 116.408 105.35 117.077 105.417C118.517 105.56 119.929 105.863 121.322 106.237C122.338 106.509 123.332 106.862 124.34 107.168C124.441 107.199 124.589 107.196 124.672 107.142C126.037 106.251 127.528 105.663 129.115 105.327C129.717 105.199 130.338 105.144 130.954 105.104C131.703 105.057 132.457 105.013 133.204 105.056C134.102 105.108 134.996 105.24 135.889 105.362C136.322 105.421 136.744 105.572 137.179 105.613C137.386 105.633 137.607 105.481 137.827 105.43C138.947 105.171 140.063 104.883 141.193 104.678C142.035 104.526 142.895 104.455 143.75 104.405C144.705 104.351 145.666 104.311 146.62 104.357C147.828 104.417 149.027 104.585 150.205 104.861C151.669 105.202 153.073 105.697 154.408 106.384C155.405 106.897 156.354 107.492 157.207 108.224C157.767 108.704 158.339 109.178 158.845 109.713C159.468 110.372 160.104 111.032 160.495 111.877C160.789 112.514 160.999 113.174 161.057 113.872C161.13 114.739 161.217 115.61 161.209 116.478C161.201 117.309 161.088 118.139 161.008 118.968C160.825 120.856 160.414 122.704 159.915 124.528C159.498 126.034 159.026 127.524 158.5 128.996C158.019 130.352 157.464 131.685 156.904 133.011C156.491 133.994 156.043 134.961 155.56 135.911C154.642 137.708 153.689 139.487 152.586 141.179C152.395 141.472 152.215 141.772 152.029 142.07C152.51 142.395 153.055 142.509 153.605 142.569C154.127 142.625 154.659 142.659 155.181 142.62C156.016 142.559 156.849 142.439 157.679 142.323C158.501 142.208 159.307 141.974 160.152 142.036C160.995 142.097 161.598 142.738 161.541 143.528ZM149.502 141.695C149.144 141.232 148.779 140.775 148.428 140.307C147.878 139.572 147.483 138.751 147.086 137.926C146.71 137.145 146.248 136.405 145.851 135.632C145.16 134.284 144.455 132.94 143.818 131.566C143.017 129.839 142.385 128.052 142.186 126.139C142.102 125.33 142.081 124.522 142.244 123.72C142.506 122.44 143.175 121.438 144.299 120.751C145.342 120.114 146.504 119.909 147.695 119.844C148.434 119.804 149.176 119.837 149.943 119.837L149.917 119.708C149.44 118.711 148.994 117.697 148.473 116.723C147.737 115.349 146.795 114.111 145.746 112.962C144.969 112.112 144.127 111.323 143.205 110.626C142.298 109.939 141.343 109.326 140.324 108.825C139.108 108.227 137.842 107.765 136.514 107.47C135.237 107.187 133.953 107.013 132.643 106.999C131.527 106.987 130.417 107.038 129.329 107.29C127.688 107.67 126.186 108.346 124.879 109.44C124.157 110.047 123.511 110.739 122.956 111.502C122.302 112.401 121.774 113.371 121.323 114.388C120.704 115.784 120.279 117.236 119.989 118.729C119.843 119.473 119.729 120.224 119.614 120.975C119.573 121.237 119.57 121.506 119.546 121.806C119.748 121.701 119.894 121.62 120.042 121.548L120.526 121.331C122.163 120.582 123.859 120.101 125.682 120.156C126.456 120.179 127.197 120.333 127.886 120.672C129.206 121.323 129.979 122.43 130.315 123.832C130.547 124.799 130.705 125.786 130.859 126.77C130.98 127.538 131.104 128.315 131.118 129.09C131.138 130.222 131.081 131.357 131.019 132.489C130.966 133.452 130.767 134.401 130.429 135.303C129.816 136.94 129.134 138.55 128.496 140.178C128.285 140.715 128.123 141.272 127.924 141.863C128.232 141.863 128.481 141.861 128.73 141.864C128.828 141.866 128.927 141.869 129.021 141.891C129.754 142.064 130.39 142.396 130.911 142.96C131.606 143.71 131.971 144.585 131.989 145.599C132 146.16 131.941 146.724 131.943 147.285C131.955 149.903 131.975 152.52 131.996 155.137C132 155.564 132.022 155.993 132.052 156.42C132.116 157.314 132.181 158.209 132.268 159.101C132.329 159.733 132.415 160.365 132.515 160.993C132.656 161.884 133.062 162.676 133.522 163.433C133.918 164.085 134.432 164.638 135.11 165.02C136.263 165.669 137.503 165.723 138.754 165.484C139.599 165.322 140.429 165.063 141.249 164.796C142.056 164.537 142.792 164.096 143.402 163.508C143.977 162.951 144.385 162.272 144.66 161.522C145.194 160.068 145.36 158.537 145.581 157.017C145.663 156.449 145.735 155.878 145.81 155.309C145.896 154.66 145.983 154.012 146.066 153.364C146.128 152.881 146.183 152.397 146.243 151.914C146.327 151.221 146.416 150.528 146.496 149.834C146.558 149.297 146.611 148.759 146.665 148.221C146.736 147.534 146.812 146.847 146.873 146.159C146.92 145.637 146.9 145.105 146.993 144.593C147.163 143.654 147.607 142.854 148.44 142.337C148.788 142.121 149.181 141.979 149.568 141.796L149.502 141.695ZM118.004 137.838C117.589 136.861 117.338 135.822 117.264 134.764C117.194 133.765 117.312 132.771 117.415 131.778C117.514 130.815 117.597 129.848 117.626 128.881C117.674 127.292 117.567 125.705 117.491 124.117C117.445 123.171 117.555 122.214 117.639 121.267C117.715 120.413 117.809 119.557 117.971 118.716C118.241 117.305 118.601 115.913 119.111 114.565C119.597 113.286 120.154 112.041 120.941 110.92C121.48 110.151 122.092 109.432 122.68 108.681L122.505 108.619C120.592 108.011 118.648 107.537 116.649 107.33C115.703 107.232 114.755 107.174 113.806 107.118C113.515 107.1 113.22 107.14 112.928 107.168C112.205 107.237 111.473 107.264 110.762 107.4C109.551 107.63 108.389 108.017 107.314 108.648C106.348 109.214 105.537 109.945 104.858 110.823C104.107 111.792 103.603 112.888 103.24 114.057C102.812 115.435 102.608 116.854 102.553 118.286C102.505 119.541 102.48 120.803 102.697 122.053C102.858 122.984 102.966 123.924 103.144 124.851C103.386 126.115 103.646 127.376 103.946 128.627C104.375 130.418 104.804 132.211 105.313 133.979C105.799 135.674 106.349 137.354 106.944 139.013C107.43 140.367 107.993 141.696 108.586 143.007C108.972 143.861 109.439 144.683 109.929 145.483C110.451 146.333 111.043 147.139 111.848 147.755C112.863 148.533 113.649 148.654 114.68 147.8C115.122 147.435 115.496 146.983 115.88 146.552C116.491 145.869 117.08 145.167 117.689 144.481C118.463 143.607 119.247 142.742 120.025 141.873C120.19 141.689 120.348 141.5 120.508 141.314L120.244 141.082C119.282 140.165 118.52 139.061 118.004 137.838ZM147.365 111.824C148.001 112.563 148.605 113.331 149.174 114.123C150.268 115.659 151.142 117.318 151.786 119.092C152.071 119.874 152.298 120.664 152.196 121.52C152.126 122.119 152.132 122.727 152.079 123.33C152.034 123.831 151.955 124.33 151.89 124.83C151.793 125.584 151.652 126.335 151.61 127.092C151.57 127.812 151.611 128.54 151.657 129.262C151.703 129.995 151.801 130.725 151.869 131.458C151.945 132.288 152.047 133.118 152.071 133.95C152.09 134.633 152.029 135.32 151.969 136.002C151.898 136.824 151.69 137.619 151.379 138.382C151.161 138.919 150.9 139.439 150.654 139.977L150.753 140.082L150.903 140.198L151.054 139.927C152.334 137.914 153.471 135.814 154.457 133.642C155.088 132.24 155.688 130.824 156.255 129.395C157.143 127.172 157.846 124.887 158.389 122.557C158.633 121.511 158.82 120.449 158.985 119.387C159.114 118.557 159.222 117.717 159.246 116.879C159.272 115.99 159.223 115.095 159.141 114.208C159.079 113.539 158.914 112.865 158.495 112.321C157.82 111.445 157.092 110.607 156.197 109.944C155.444 109.386 154.693 108.813 153.884 108.343C152.602 107.6 151.214 107.104 149.763 106.767C148.348 106.437 146.914 106.295 145.471 106.265C144.62 106.247 143.765 106.338 142.916 106.418C142.146 106.49 141.382 106.613 140.607 106.715C141.438 107.182 142.258 107.598 143.031 108.088C144.657 109.118 146.114 110.357 147.365 111.824ZM126.242 140.656C126.767 138.976 127.483 137.371 128.176 135.757C128.739 134.447 129.046 133.068 129.148 131.652C129.199 130.953 129.185 130.246 129.15 129.546C129.116 128.766 129.045 127.989 128.936 127.217C128.791 126.232 128.625 125.246 128.392 124.279C128.139 123.233 127.502 122.505 126.411 122.236C125.746 122.073 125.085 122.079 124.413 122.185C122.771 122.444 121.268 123.049 119.868 123.935C119.587 124.113 119.432 124.257 119.481 124.661C119.583 125.517 119.606 126.386 119.602 127.251C119.597 128.473 119.545 129.696 119.498 130.918C119.483 131.317 119.425 131.712 119.383 132.109C119.317 132.716 119.191 133.323 119.195 133.928C119.198 134.553 119.262 135.192 119.414 135.797C119.895 137.715 120.915 139.285 122.585 140.392C123.613 141.073 124.75 141.416 125.998 141.481C126.083 141.195 126.158 140.924 126.242 140.656ZM124.281 124.202C124.061 123.741 124.186 123.358 124.696 123.181C124.82 123.138 124.948 123.091 125.077 123.078C125.255 123.061 125.435 123.074 125.614 123.074C126.261 123.077 126.883 123.168 127.416 123.579C127.759 123.842 127.851 124.192 127.629 124.552C127.315 125.061 126.835 125.317 126.246 125.367C125.318 125.444 124.667 125.011 124.281 124.202ZM150.006 124.034C150.08 123.419 150.14 122.803 150.216 122.188C150.246 121.941 150.116 121.874 149.909 121.868C149.257 121.85 148.605 121.827 147.953 121.815C147.218 121.802 146.503 121.92 145.822 122.2C145.068 122.51 144.493 123.008 144.258 123.829C144.087 124.435 144.032 125.068 144.098 125.694C144.19 126.662 144.409 127.614 144.751 128.525C145.207 129.739 145.684 130.953 146.255 132.117C147.027 133.693 147.902 135.218 148.723 136.769C148.942 137.183 149.126 137.615 149.355 138.099C149.816 137.138 150.067 136.09 150.094 135.024C150.116 134.144 150.045 133.26 149.994 132.379C149.962 131.839 149.886 131.303 149.833 130.765C149.76 130.016 149.649 129.266 149.632 128.515C149.615 127.751 149.669 126.983 149.735 126.22C149.797 125.488 149.917 124.762 150.006 124.034ZM148.535 123.442C148.293 124.111 147.775 124.488 147.103 124.599C146.477 124.702 145.929 124.471 145.521 123.971C145.23 123.616 145.341 123.195 145.777 122.955C146.276 122.678 146.826 122.608 147.474 122.566C147.65 122.598 147.915 122.625 148.167 122.697C148.533 122.801 148.668 123.076 148.535 123.442ZM129.164 144.037C128.805 143.745 128.332 143.728 127.991 144.049C127.568 144.448 127.196 144.905 126.825 145.355C126.395 145.875 125.993 146.416 125.439 146.819C124.633 147.405 123.693 147.647 122.749 147.877C121.998 148.06 121.244 148.229 120.491 148.405L120.481 148.502C120.705 148.605 120.922 148.735 121.155 148.808C122.303 149.172 123.471 149.353 124.685 149.25C125.561 149.176 126.395 148.985 127.186 148.61C128.274 148.094 129.112 147.277 129.824 146.327C129.943 146.168 129.997 145.933 130.011 145.729C130.06 145.006 129.693 144.469 129.164 144.037ZM157.465 144.325C156.541 144.424 155.615 144.529 154.688 144.582C154.241 144.608 153.787 144.522 153.335 144.486C152.578 144.425 151.839 144.256 151.198 143.851C150.827 143.618 150.52 143.592 150.126 143.724C149.564 143.913 149.105 144.201 148.969 144.81C148.877 145.222 148.843 145.649 148.806 146.07C148.799 146.145 148.892 146.281 148.963 146.3C149.397 146.414 149.833 146.549 150.276 146.589C150.821 146.638 151.375 146.623 151.924 146.595C152.516 146.566 153.112 146.527 153.696 146.429C155.071 146.198 156.402 145.822 157.584 145.042C158.01 144.76 158.432 144.473 158.855 144.188L158.82 144.128C158.368 144.195 157.919 144.277 157.465 144.325Z" fill="#E5E9FC"/>
<g clip-path="url(#clip1_130_76)">
<path d="M151.024 325.218C141.204 312.502 122.933 310.155 110.217 319.976C97.5017 329.798 95.1566 348.069 104.978 360.783C114.802 373.498 133.074 375.842 145.787 366.018C158.496 356.196 160.842 337.931 151.024 325.218Z" fill="#E5E9FC"/>
<path d="M140.693 324.327C139.691 324.407 138.742 324.805 137.983 325.464C137.095 326.235 136.528 327.311 136.394 328.48C136.261 329.648 136.57 330.824 137.261 331.776C137.951 332.728 138.973 333.387 140.125 333.622C141.277 333.858 142.476 333.653 143.484 333.048H143.485L143.558 333.122C143.89 332.931 144.199 332.703 144.479 332.442C145.343 331.529 145.817 330.316 145.804 329.059C145.79 327.803 145.289 326.601 144.406 325.706V325.705L140.261 329.825L140.187 329.753L144.333 325.631C143.853 325.168 143.281 324.813 142.653 324.588C142.025 324.364 141.357 324.275 140.693 324.328V324.327ZM135.235 331.071C133.247 331.068 130.002 333.32 122.078 341.244L122.118 341.284C122.075 341.269 122.031 341.268 122.031 341.268L119.048 344.225C118.971 344.298 118.92 344.394 118.903 344.498C118.886 344.602 118.904 344.709 118.953 344.803C119.002 344.896 119.081 344.971 119.177 345.016C119.273 345.061 119.38 345.073 119.484 345.051L124.6 343.96C124.622 343.938 124.637 343.91 124.643 343.88L124.756 343.997L123.012 345.727H122.928L112.575 356.161L115.897 359.36C115.99 359.444 116.107 359.495 116.231 359.508C116.356 359.521 116.481 359.493 116.589 359.43C116.697 359.367 116.784 359.272 116.838 359.159C116.892 359.045 116.911 358.918 116.891 358.794L116.406 356.685C116.376 356.642 116.359 356.591 116.359 356.539C116.359 356.487 116.376 356.436 116.406 356.394C120.941 354.232 125.158 351.459 128.939 348.152L126.814 346.025L126.854 346.019L125.593 344.758L125.674 344.677L125.759 344.764L125.715 344.807L129.06 348.225V348.224C135.473 342.152 140.024 337.27 138.841 333.985C138.787 333.593 138.604 333.229 138.322 332.95V332.952C138.25 332.899 138.174 332.851 138.095 332.809C138.057 332.768 138.022 332.725 137.981 332.685L137.95 332.716C137.863 332.663 137.772 332.618 137.677 332.58L137.813 332.443C136.971 331.693 136.275 331.073 135.235 331.07V331.071ZM112.503 356.223L110.079 358.648V358.65C109.992 358.704 109.925 358.784 109.886 358.878C109.848 358.973 109.84 359.078 109.865 359.177C109.889 359.276 109.944 359.365 110.021 359.432C110.099 359.498 110.195 359.538 110.297 359.547L116.237 359.957L112.503 356.223Z" fill="white"/>
<path d="M141.102 323.927C139.741 323.925 138.435 324.459 137.465 325.413C136.774 326.119 136.302 327.009 136.103 327.976C135.904 328.944 135.988 329.948 136.344 330.869C134.122 329.918 131.115 331.577 121.763 340.927C121.757 340.942 121.751 340.956 121.746 340.971C121.727 340.98 121.708 340.99 121.69 341L118.733 343.983C118.591 344.123 118.498 344.304 118.467 344.5C118.437 344.696 118.47 344.897 118.563 345.073C118.645 345.212 118.762 345.327 118.902 345.408C119.043 345.489 119.201 345.532 119.363 345.534L119.51 345.439L123.458 344.597L121.569 346.503C121.558 346.528 121.55 346.554 121.544 346.581L112.286 355.862C112.249 355.893 112.219 355.93 112.196 355.973L109.812 358.359C109.693 358.484 109.612 358.641 109.578 358.81C109.543 358.979 109.557 359.155 109.618 359.317C109.68 359.478 109.786 359.618 109.923 359.723C110.06 359.827 110.223 359.892 110.394 359.91L116.309 360.322C116.41 360.287 116.496 360.218 116.553 360.128C116.604 360.057 116.631 359.972 116.631 359.885C116.631 359.798 116.604 359.713 116.553 359.643L116.54 359.631C116.668 359.564 116.781 359.471 116.871 359.359C116.966 359.236 117.032 359.093 117.065 358.941C117.098 358.789 117.097 358.631 117.061 358.48L116.6 356.517C121.025 354.402 125.171 351.747 128.944 348.613C128.981 348.634 129.02 348.65 129.06 348.662C129.179 348.653 129.291 348.602 129.375 348.517C135.727 342.503 139.46 338.382 139.46 335.11C139.474 334.656 139.406 334.204 139.258 333.774C139.831 334.011 140.441 334.143 141.061 334.163L141.054 334.165C141.907 334.139 142.741 333.906 143.483 333.485C143.484 333.485 143.485 333.486 143.485 333.486C143.581 333.515 143.685 333.505 143.774 333.46C144.133 333.249 144.459 332.988 144.745 332.686C145.228 332.211 145.612 331.645 145.874 331.021C146.137 330.397 146.272 329.726 146.272 329.049C146.272 328.372 146.137 327.702 145.875 327.077C145.612 326.453 145.228 325.887 144.745 325.413C144.728 325.397 144.709 325.383 144.69 325.37C143.725 324.443 142.439 323.926 141.101 323.927L141.102 323.927ZM141.061 324.757C142.008 324.763 142.928 325.078 143.679 325.654L139.897 329.459C139.884 329.474 139.872 329.489 139.862 329.505C139.794 329.574 139.754 329.666 139.75 329.763C139.75 329.822 139.763 329.879 139.788 329.932C139.814 329.985 139.851 330.031 139.896 330.068H139.897L142.757 332.927C141.974 333.268 141.107 333.365 140.268 333.205C139.429 333.045 138.658 332.636 138.056 332.03C136.844 330.812 136.492 328.982 137.141 327.394C137.789 325.805 139.334 324.767 141.061 324.757ZM144.398 326.366C145.017 327.114 145.354 328.055 145.351 329.026C145.349 330.163 144.896 331.253 144.091 332.056C143.93 332.207 143.758 332.348 143.577 332.475L141.269 330.203L140.817 329.752L140.942 329.628L144.398 326.365L144.398 326.366ZM144.227 328.331C144.142 328.305 144.05 328.31 143.969 328.346C143.888 328.388 143.828 328.459 143.8 328.546C143.787 328.589 143.782 328.634 143.786 328.679C143.79 328.724 143.803 328.768 143.824 328.808C143.907 328.983 143.94 329.178 143.918 329.37C143.897 329.563 143.823 329.746 143.703 329.899C143.673 329.928 143.649 329.964 143.633 330.003C143.617 330.043 143.61 330.085 143.612 330.128C143.614 330.214 143.645 330.296 143.703 330.358C143.766 330.382 143.835 330.382 143.897 330.358C143.954 330.372 144.013 330.371 144.068 330.354C144.124 330.337 144.174 330.305 144.212 330.261C144.412 330.017 144.538 329.721 144.576 329.407C144.615 329.094 144.564 328.776 144.43 328.491V328.493C144.384 328.416 144.312 328.358 144.227 328.331ZM135.191 331.483C135.756 331.502 136.301 331.703 136.742 332.057C136.267 332.126 135.826 332.346 135.485 332.686L124.795 343.329L122.697 341.23C128.241 335.712 131.631 332.83 133.738 331.885C134.173 331.612 134.678 331.472 135.191 331.483ZM137.049 332.87C137.408 332.87 137.753 333.013 138.007 333.266C138.142 333.393 138.249 333.547 138.32 333.719C138.391 333.89 138.425 334.075 138.419 334.26C138.413 334.445 138.369 334.626 138.289 334.793C138.21 334.96 138.097 335.109 137.957 335.23L126.59 345.124L125.363 343.897L136.092 333.266C136.346 333.013 136.69 332.87 137.049 332.87ZM138.453 336.01C137.66 339.152 133.462 343.408 129.084 347.545L127.313 345.776L138.453 336.01ZM122.078 341.85L122.207 341.977L123.853 343.623L119.339 344.589L122.078 341.85ZM124.794 344.588L124.796 344.59L125.343 345.15C125.345 345.163 125.348 345.176 125.352 345.189L125.388 345.195L125.504 345.314L125.889 345.708L123.365 346.017L124.794 344.587L124.794 344.588ZM126.606 346.498L128.284 348.175C124.575 351.258 120.505 353.88 116.164 355.982C116.023 356.049 115.91 356.163 115.843 356.304C115.777 356.446 115.762 356.606 115.8 356.757L116.285 358.866C116.303 358.891 116.313 358.921 116.313 358.951C116.313 358.982 116.303 359.012 116.285 359.036C116.258 359.06 116.224 359.074 116.188 359.074C116.152 359.074 116.118 359.06 116.091 359.036L113.231 356.153L122.047 347.207L126.606 346.498ZM112.575 356.783L112.983 357.164L115.088 359.27L110.393 358.966L112.575 356.783Z" fill="#E5E9FC"/>
</g>
<defs>
<clipPath id="clip0_130_76">
<rect width="80" height="80" fill="white" transform="translate(288 228)"/>
</clipPath>
<clipPath id="clip1_130_76">
<rect width="60" height="60" fill="white" transform="translate(98 313)"/>
</clipPath>
</defs>
</svg>
