<svg width="128" height="128" viewBox="0 0 128 128" fill="none" xmlns="http://www.w3.org/2000/svg">
<g clip-path="url(#clip0_46_15)">
<path d="M65.5 107.5C65.5 118.572 56.5716 127.5 45.5 127.5C34.4284 127.5 25.5 118.572 25.5 107.5C25.5 96.4284 34.4284 87.5 45.5 87.5H65.5V107.5Z" stroke="#1E1E20" stroke-width="3"/>
<path d="M25.5 64.5C25.5 53.4284 34.4284 44.5 45.5 44.5H65.5V84.5H45.5C34.4284 84.5 25.5 75.5716 25.5 64.5Z" stroke="#1E1E20" stroke-width="3"/>
<path d="M25.5 21.5C25.5 10.4284 34.4284 1.5 45.5 1.5H65.5V41.5H45.5C34.4284 41.5 25.5 32.5716 25.5 21.5Z" stroke="#1E1E20" stroke-width="3"/>
<path d="M68.5 1.5H88.5C99.5716 1.5 108.5 10.4284 108.5 21.5C108.5 32.5716 99.5716 41.5 88.5 41.5H68.5V1.5Z" stroke="#1E1E20" stroke-width="3"/>
<path d="M108.5 64.5C108.5 75.5716 99.5716 84.5 88.5 84.5C77.4284 84.5 68.5 75.5716 68.5 64.5C68.5 53.4284 77.4284 44.5 88.5 44.5C99.5716 44.5 108.5 53.4284 108.5 64.5Z" stroke="#1E1E20" stroke-width="3"/>
</g>
<defs>
<clipPath id="clip0_46_15">
<rect width="128" height="128" fill="white"/>
</clipPath>
</defs>
</svg>
