<svg width="128" height="128" viewBox="0 0 128 128" fill="none" xmlns="http://www.w3.org/2000/svg">
<path d="M113.117 26.0661C92.168 -1.06194 53.191 -6.06994 26.062 14.8831C-1.063 35.8361 -6.066 74.8131 14.887 101.938C35.844 129.062 74.824 134.062 101.945 113.105C129.059 92.1521 134.063 53.1871 113.117 26.0661Z" fill="#1E1E20"/>
<path d="M91.078 24.164C88.9414 24.3347 86.9156 25.1848 85.297 26.59C83.4024 28.2348 82.1931 30.5302 81.908 33.0229C81.6229 35.5157 82.2827 38.0248 83.757 40.055C85.2293 42.086 87.4093 43.4915 89.867 43.9942C92.3247 44.4968 94.8815 44.06 97.033 42.77H97.035L97.191 42.926C97.8995 42.5197 98.5589 42.0332 99.156 41.476C100.998 39.5278 102.011 36.9406 101.982 34.26C101.952 31.5793 100.883 29.0147 99 27.107V27.105L90.156 35.894L90 35.739L98.844 26.946C97.8203 25.959 96.5986 25.2007 95.2597 24.7214C93.9209 24.2422 92.4955 24.0528 91.078 24.166V24.164ZM79.434 38.551C75.194 38.544 68.271 43.35 51.367 60.254L51.451 60.34C51.359 60.308 51.266 60.305 51.266 60.305L44.902 66.613C44.7386 66.7684 44.6304 66.973 44.5939 67.1956C44.5575 67.4182 44.5947 67.6466 44.7 67.846C44.8053 68.0455 44.9728 68.2051 45.1772 68.3006C45.3815 68.3961 45.6114 68.4222 45.832 68.375L56.746 66.047C56.7942 66.0017 56.8264 65.9421 56.838 65.877L57.08 66.127L53.36 69.817H53.18L31.094 92.077L38.18 98.901C38.3782 99.0796 38.6282 99.1904 38.8936 99.2171C39.159 99.2439 39.4261 99.1854 39.656 99.05C39.8879 98.9155 40.0736 98.714 40.1887 98.472C40.3039 98.2299 40.343 97.9587 40.301 97.694L39.266 93.194C39.2015 93.1035 39.1668 92.9951 39.1668 92.884C39.1668 92.7728 39.2015 92.6645 39.266 92.574C48.9401 87.9621 57.9365 82.0461 66.004 74.991L61.469 70.454L61.555 70.44L58.865 67.751L59.037 67.577L59.219 67.763L59.125 67.854L66.262 75.147V75.144C79.942 62.19 89.652 51.777 87.127 44.769C87.012 43.9309 86.6227 43.1545 86.02 42.561V42.565C85.867 42.4509 85.7055 42.3486 85.537 42.259C85.454 42.171 85.381 42.081 85.293 41.995L85.227 42.061C85.0417 41.9478 84.847 41.8507 84.645 41.771L84.934 41.479C83.138 39.879 81.654 38.555 79.434 38.549V38.551ZM30.94 92.21L25.769 97.382V97.386C25.5835 97.5009 25.4392 97.6718 25.3571 97.874C25.275 98.0762 25.2592 98.2992 25.312 98.511C25.363 98.7227 25.4795 98.9128 25.6448 99.0545C25.8102 99.1962 26.016 99.2821 26.233 99.3L38.905 100.175L30.94 92.21Z" fill="white"/>
<path d="M91.95 23.3099C89.0477 23.3063 86.2605 24.4451 84.191 26.4799C82.7185 27.9869 81.7102 29.8855 81.2865 31.9495C80.8627 34.0134 81.0413 36.1557 81.801 38.1209C77.06 36.0909 70.646 39.6309 50.695 59.5779C50.681 59.6086 50.6686 59.64 50.658 59.6719C50.6172 59.6905 50.5775 59.7112 50.539 59.7339L44.23 66.0979C43.9276 66.3948 43.729 66.7812 43.6636 67.1998C43.5982 67.6185 43.6695 68.047 43.867 68.4219C44.0433 68.7186 44.2929 68.9649 44.5918 69.1372C44.8907 69.3095 45.229 69.4021 45.574 69.4059L45.887 69.2029L54.311 67.4059L50.281 71.4729C50.2575 71.5263 50.2394 71.5819 50.227 71.6389L30.477 91.438C30.3983 91.5042 30.3331 91.585 30.285 91.6759L25.199 96.7659C24.9455 97.0335 24.7723 97.3669 24.6991 97.7281C24.6259 98.0893 24.6557 98.4638 24.785 98.8089C24.9176 99.1519 25.1425 99.4516 25.4347 99.6749C25.7269 99.8981 26.0752 100.036 26.441 100.074L39.059 100.954C39.2742 100.878 39.4575 100.732 39.579 100.539C39.6875 100.388 39.7458 100.207 39.7458 100.021C39.7458 99.8357 39.6875 99.6547 39.579 99.5039L39.553 99.4789C39.8253 99.336 40.0652 99.1386 40.258 98.8989C40.4606 98.636 40.6022 98.3312 40.6724 98.0067C40.7427 97.6822 40.7398 97.3462 40.664 97.0229L39.68 92.8359C49.1204 88.3243 57.9657 82.6609 66.014 75.9749C66.0921 76.0194 66.1754 76.054 66.262 76.0779C66.516 76.0589 66.754 75.9499 66.934 75.7699C80.484 62.9399 88.449 54.1479 88.449 47.1679C88.4784 46.1997 88.3324 45.2342 88.018 44.3179C89.2391 44.8243 90.5418 45.1055 91.863 45.1479L91.848 45.1519C93.6677 45.0963 95.4466 44.5987 97.031 43.7019C97.0323 43.7023 97.0337 43.7026 97.035 43.7029C97.2401 43.7644 97.461 43.7447 97.652 43.6479C98.4165 43.1977 99.1134 42.6416 99.722 41.9959C100.753 40.9841 101.572 39.7769 102.132 38.4449C102.691 37.1128 102.98 35.6827 102.98 34.2379C102.98 32.7933 102.692 31.3632 102.132 30.0311C101.573 28.6991 100.754 27.4919 99.723 26.4799C99.6862 26.4465 99.6467 26.4161 99.605 26.3889C97.5465 24.4124 94.8028 23.3093 91.949 23.3109L91.95 23.3099ZM91.863 25.0819C93.8839 25.094 95.8454 25.7661 97.449 26.9959L89.381 35.1129C89.3533 35.1437 89.3279 35.1764 89.305 35.2109C89.1596 35.3581 89.0743 35.5542 89.066 35.7609C89.066 35.8858 89.0942 36.0091 89.1484 36.1216C89.2026 36.2342 89.2814 36.333 89.379 36.4109H89.381L95.481 42.5109C93.8113 43.2391 91.9606 43.446 90.1713 43.1046C88.382 42.7633 86.7374 41.8896 85.453 40.5979C82.867 37.9979 82.117 34.0939 83.5 30.7069C84.883 27.3169 88.18 25.1019 91.863 25.0819ZM98.983 28.5139C100.302 30.11 101.021 32.1173 101.016 34.1879C101.012 36.6137 100.045 38.9388 98.328 40.6519C97.9836 40.9759 97.6167 41.275 97.23 41.5469L92.307 36.6999L91.344 35.7369L91.609 35.4719L98.982 28.5119L98.983 28.5139ZM98.617 32.7069C98.436 32.6498 98.2404 32.6608 98.067 32.7379C97.8954 32.8268 97.766 32.9799 97.707 33.1639C97.678 33.2558 97.6676 33.3525 97.6761 33.4484C97.6847 33.5444 97.7122 33.6377 97.757 33.7229C97.9347 34.0965 98.0048 34.5123 97.9594 34.9235C97.914 35.3347 97.7549 35.7251 97.5 36.0509C97.4348 36.1139 97.3837 36.1899 97.3501 36.274C97.3165 36.3581 97.3011 36.4484 97.305 36.5389C97.309 36.7229 97.375 36.8989 97.5 37.0309C97.6333 37.0819 97.7807 37.0819 97.914 37.0309C98.0342 37.061 98.1604 37.0575 98.2788 37.021C98.3973 36.9846 98.5035 36.9164 98.586 36.8239C99.0115 36.3022 99.2809 35.6707 99.3632 35.0025C99.4455 34.3343 99.3372 33.6564 99.051 33.0469V33.0509C98.9535 32.8869 98.799 32.7644 98.617 32.7069ZM79.34 39.4299C80.5469 39.47 81.7083 39.9001 82.65 40.6559C81.6353 40.802 80.6949 41.272 79.969 41.9959L57.162 64.7009L52.686 60.2249C64.514 48.4529 71.746 42.3039 76.242 40.2889C77.168 39.7048 78.2453 39.4067 79.34 39.4299ZM83.305 42.3899C84.0708 42.39 84.8054 42.6935 85.348 43.2339C85.6368 43.5047 85.8646 43.834 86.0161 44.1997C86.1677 44.5654 86.2396 44.9593 86.227 45.3549C86.2139 45.7492 86.1197 46.1364 85.9502 46.4926C85.7808 46.8488 85.5397 47.1661 85.242 47.4249L60.992 68.5309L58.375 65.9139L81.262 43.2339C81.8047 42.6938 82.5393 42.3897 83.305 42.3899ZM86.299 49.0879C84.609 55.7899 75.652 64.8709 66.312 73.6949L62.535 69.9219L86.299 49.0879ZM51.367 61.5469L51.641 61.8169L55.154 65.3299L45.524 67.3899L51.367 61.5469ZM57.16 67.3869L57.164 67.3909L58.332 68.5859C58.3369 68.6142 58.3429 68.6422 58.35 68.6699L58.428 68.6819L58.676 68.9359L59.496 69.7759L54.111 70.4359L57.161 67.3859L57.16 67.3869ZM61.027 71.4629L64.605 75.0389C56.6933 81.6179 48.0113 87.2109 38.75 91.6949C38.4493 91.8381 38.2076 92.0811 38.0659 92.3825C37.9242 92.6839 37.8914 93.0251 37.973 93.3479L39.008 97.8479C39.0462 97.9008 39.0667 97.9643 39.0667 98.0294C39.0667 98.0946 39.0462 98.1581 39.008 98.2109C38.9511 98.262 38.8774 98.2902 38.801 98.2902C38.7246 98.2902 38.6509 98.262 38.594 98.2109L32.492 92.0589L51.3 72.9749L61.027 71.4629ZM31.094 93.4029L31.963 94.2169L36.455 98.7089L26.439 98.0609L31.094 93.4029Z" fill="#1E1E20"/>
</svg>
